<svg xmlns="http://www.w3.org/2000/svg" viewBox="0 0 221.38 230"><defs><style>.cls-1{fill:none;stroke:#354157;stroke-linecap:round;stroke-linejoin:round;stroke-width:10px;}</style></defs><title>04</title><g id="Слой_2" data-name="Слой 2"><g id="Elements"><g id="_12" data-name="12"><line class="cls-1" x1="17.84" y1="111.97" x2="44.8" y2="111.97"/><line class="cls-1" x1="78.41" y1="70.86" x2="17.84" y2="70.86"/><line class="cls-1" x1="105.22" y1="71.28" x2="165.37" y2="71.28"/><line class="cls-1" x1="186.79" y1="71.28" x2="202.68" y2="71.28"/><line class="cls-1" x1="135.54" y1="17.84" x2="135.54" y2="70.86"/><polyline class="cls-1" points="69.97 111.97 90.17 111.97 90.17 165.38"/><line class="cls-1" x1="128.4" y1="111.97" x2="142.26" y2="111.97"/><line class="cls-1" x1="163.27" y1="111.97" x2="202.68" y2="111.97"/><line class="cls-1" x1="128.4" y1="111.97" x2="128.4" y2="165.38"/><polyline class="cls-1" points="117.06 165.38 131.62 165.38 152.45 165.38 173.28 165.38 194.11 165.38 202.68 165.38 202.68 156.81 202.68 135.98 202.68 115.15 202.68 94.31 202.68 73.48 202.68 52.65 202.68 31.82 202.68 17.84 195.83 17.84 175 17.84 154.17 17.84 133.34 17.84 112.5 17.84 91.67 17.84 70.84 17.84 50.01 17.84 29.17 17.84 17.84 17.84 17.84 29.17 17.84 50.01 17.84 70.84 17.84 70.86 17.84 83.04"/><polyline class="cls-1" points="17.84 83.04 5 83.04 5 70.86 5 17.84 5 5 17.84 5 202.68 5 215.52 5 215.52 17.84 215.52 165.38 215.52 178.22 202.68 178.22 117.06 178.22 117.06 165.38"/><polyline class="cls-1" points="17.84 101.67 17.84 111.97 17.84 112.5 17.84 133.34 17.84 154.17 17.84 165.38 27.46 165.38 48.29 165.38 69.13 165.38 89.96 165.38 99.42 165.38"/><polyline class="cls-1" points="17.84 101.67 7.84 101.67 5 101.67 5 104.52 5 111.97 5 125.35 5 146.18 5 165.38 5 167.01 5 178.22 14.62 178.22 17.84 178.22 35.45 178.22 56.28 178.22 77.12 178.22 97.95 178.22 99.42 178.22 99.42 176.75 99.42 165.38"/><line class="cls-1" x1="7.84" y1="101.67" x2="5" y2="104.52"/><line class="cls-1" x1="99.42" y1="176.75" x2="97.95" y2="178.22"/><rect class="cls-1" x="5.86" y="196.53" width="210.52" height="28.47"/><line class="cls-1" x1="19.98" y1="213.47" x2="19.97" y2="196.53"/><line class="cls-1" x1="56.36" y1="213.47" x2="56.36" y2="196.53"/><line class="cls-1" x1="92.74" y1="213.47" x2="92.74" y2="196.53"/><line class="cls-1" x1="129.13" y1="213.47" x2="129.13" y2="196.53"/><line class="cls-1" x1="165.51" y1="213.47" x2="165.51" y2="196.53"/><polyline class="cls-1" points="201.9 213.47 201.9 196.54 201.9 196.53"/></g></g></g></svg>