<svg xmlns="http://www.w3.org/2000/svg" viewBox="0 0 512 466.21"><title>05</title><g id="Слой_2" data-name="Слой 2"><g id="Layer_1" data-name="Layer 1"><path d="M497,195.21q-16.8,0-33.36,1.08-5.59-3.82-11.89-7.77V147.93a45.2,45.2,0,0,0,30.13-42.55V45.13a45.13,45.13,0,1,0-90.25,0v60.25a45.19,45.19,0,0,0,30.12,42.55v24A362.84,362.84,0,0,0,331.25,142V93.69a15,15,0,0,0,14.08-26.11L265,7.33a15,15,0,0,0-18,0L166.67,67.58A15,15,0,0,0,180.75,93.7V142A363,363,0,0,0,90.25,172v-24a45.2,45.2,0,0,0,30.13-42.55V45.13a45.13,45.13,0,1,0-90.25,0v60.25a45.19,45.19,0,0,0,30.12,42.55v40.59q-6.3,3.93-11.89,7.77Q31.8,195.23,15,195.21a15,15,0,0,0-15,15v241a15,15,0,0,0,15,15H497a15,15,0,0,0,15-15v-241a15,15,0,0,0-15-15Zm-15,241H414.2a330.88,330.88,0,0,0-54.63-91.06,385,385,0,0,0-74.59-68c57.82-30.88,125.61-49.43,197-51.72Zm-100.3,0H229.56a227.26,227.26,0,0,0-77.28-105A226.36,226.36,0,0,0,30,286.07V225.45c157.65,5.05,297.69,89.36,351.7,210.76Zm-251.4,0H30v-120c73.91,5.65,139.17,52.65,167.43,120ZM421.63,45.13a15.13,15.13,0,1,1,30.25,0v60.25a15.13,15.13,0,0,1-30.25,0ZM210.75,72,256,38.08,301.25,72v65.45c-9.72-1.09-19.81-1.86-30.25-2.23V112.71a15,15,0,1,0-30,0v22.53c-10.44.37-20.53,1.14-30.25,2.23ZM60.13,45.13a15.13,15.13,0,1,1,30.25,0v60.25a15.13,15.13,0,0,1-30.25,0ZM256,165c69.69,0,123.05,18.68,158.58,36.95-56.81,9.38-110.51,28.5-158.58,56.68-48.07-28.18-101.77-47.3-158.58-56.68C133,183.64,186.31,165,256,165Z"/></g></g></svg>