<svg xmlns="http://www.w3.org/2000/svg" viewBox="0 0 8 5"><defs><style>.cls-1{isolation:isolate;}.cls-2{fill:#547fb0;}</style></defs><title>Фигура 7</title><g id="Слой_2" data-name="Слой 2"><g id="Фигура_7" data-name="Фигура 7" class="cls-1"><g id="Фигура_7-2" data-name="Фигура 7"><path class="cls-2" d="M7.87.42,7.61.14A.42.42,0,0,0,7,.14L4,3.32,1,.14a.41.41,0,0,0-.62,0L.13.42A.46.46,0,0,0,0,.74a.47.47,0,0,0,.13.33L3.69,4.86a.41.41,0,0,0,.62,0L7.87,1.08A.51.51,0,0,0,8,.75.49.49,0,0,0,7.87.42Z"/></g></g></g></svg>