<svg style="fill:#cc9933" height="496pt" viewBox="0 0 496 496" width="496pt" xmlns="http://www.w3.org/2000/svg">
    <path d="m472 448h-8v-208c8.824219 0 16-7.175781 16-16v-24c0-8.824219-7.175781-16-16-16h-208v-80c0-10.414062-6.710938-19.214844-16-22.527344v-57.472656c0-13.230469-10.769531-24-24-24h-112c-13.230469 0-24 10.769531-24 24v9.472656c-9.289062 3.3125-16 12.113282-16 22.527344v25.472656c-9.289062 3.3125-16 12.113282-16 22.527344v201.472656c-9.289062 3.3125-16 12.113282-16 22.527344v120h-8c-13.230469 0-24 10.769531-24 24v24h496v-24c0-13.230469-10.769531-24-24-24zm-24 0h-176v-120c0-10.414062-6.710938-19.214844-16-22.527344v-65.472656h192zm16-248v24h-208v-24zm-360-184h112c4.40625 0 8 3.59375 8 8v56h-16v-27.3125l-20.6875-20.6875h-91.3125v-8c0-4.40625 3.59375-8 8-8zm-16 32h92.6875l11.3125 11.3125v20.6875h-112v-24c0-4.40625 3.59375-8 8-8zm-16 48h160c4.40625 0 8 3.59375 8 8v200h-176v-200c0-4.40625 3.59375-8 8-8zm-24 232c0-4.40625 3.59375-8 8-8h192c4.40625 0 8 3.59375 8 8v120h-16v-88c0-13.230469-10.769531-24-24-24h-32c-13.230469 0-24 10.769531-24 24v88h-16v-88c0-13.230469-10.769531-24-24-24h-32c-13.230469 0-24 10.769531-24 24v88h-16zm176 120h-48v-88c0-4.40625 3.59375-8 8-8h32c4.40625 0 8 3.59375 8 8zm-96 0h-48v-88c0-4.40625 3.59375-8 8-8h32c4.40625 0 8 3.59375 8 8zm352 32h-464v-8c0-4.40625 3.59375-8 8-8h448c4.40625 0 8 3.59375 8 8zm0 0"/>
    <path d="m224 112h-64v48h64zm-16 32h-32v-16h32zm0 0"/>
    <path d="m144 112h-64v48h64zm-16 32h-32v-16h32zm0 0"/>
    <path d="m224 176h-64v48h64zm-16 32h-32v-16h32zm0 0"/>
    <path d="m144 176h-64v48h64zm-16 32h-32v-16h32zm0 0"/>
    <path d="m224 240h-64v48h64zm-16 32h-32v-16h32zm0 0"/>
    <path d="m144 240h-64v48h64zm-16 32h-32v-16h32zm0 0"/>
    <path d="m432 384h-64v48h64zm-16 32h-32v-16h32zm0 0"/>
    <path d="m352 384h-64v48h64zm-16 32h-32v-16h32zm0 0"/>
    <path d="m432 320h-64v48h64zm-16 32h-32v-16h32zm0 0"/>
    <path d="m352 320h-64v48h64zm-16 32h-32v-16h32zm0 0"/>
    <path d="m432 256h-64v48h64zm-16 32h-32v-16h32zm0 0"/>
    <path d="m352 256h-64v48h64zm-16 32h-32v-16h32zm0 0"/>
</svg>