<svg style="fill:#cc9933" height="496pt" viewBox="0 0 496.336 496" width="496pt" xmlns="http://www.w3.org/2000/svg">
    <path d="m485.703125 434.230469-18.0625-18.0625h28.359375v-352h-416v-64h-40c-22.054688 0-40 17.945312-40 40v336c0 22.054687 17.945312 40 40 40h325.015625l69.375 69.375c6.847656 6.847656 15.960937 10.625 25.65625 10.625 20.007813 0 36.289063-16.273438 36.289063-36.28125 0-9.6875-3.777344-18.796875-10.632813-25.65625zm-209.96875-158.414063 29.3125 8.328125-20.816406 20.816407zm44.601563 15.664063 130.222656 130.230469-28.6875 28.6875-130.214844-130.230469zm-304.335938-251.3125c0-13.230469 10.769531-24 24-24h24v320h-24c-9 0-17.3125 2.984375-24 8.015625zm24 360c-13.230469 0-24-10.769531-24-24s10.769531-24 24-24h40v-272h400v320h-28.359375l-127.121094-127.128907-72.253906-20.519531 20.957031 71.855469 75.792969 75.792969zm420.046875 80c-5.421875 0-10.511719-2.113281-14.34375-5.9375l-12.519531-12.519531 28.6875-28.6875 12.519531 12.519531c3.832031 3.832031 5.945313 8.929687 5.945313 14.34375 0 11.175781-9.105469 20.28125-20.289063 20.28125zm0 0"/>
    <path d="m128 128.167969v158.054687l158.054688-158.054687zm16 16h103.433594l-103.433594 103.433593zm0 0"/>
    <path d="m272 240.167969h128v-32.640625c2.625.375 5.28125.640625 8 .640625 30.871094 0 56-25.128907 56-56 0-30.871094-25.128906-56-56-56-15.214844 0-29.007812 6.121093-39.113281 16h-21.574219l16-16h-267.3125v267.3125l176-176zm136-128c22.054688 0 40 17.945312 40 40 0 22.054687-17.945312 40-40 40s-40-17.945313-40-40c0-22.054688 17.945312-40 40-40zm-50.519531 16c-3.472657 7.289062-5.480469 15.40625-5.480469 24 0 22.28125 13.113281 41.503906 32 50.519531v21.480469h-96v-52.6875l43.3125-43.3125zm-245.480469-16h212.6875l-212.6875 212.6875zm0 0"/>
    <path d="m120 368.167969h16v16h-16zm0 0"/>
    <path d="m152 368.167969h112v16h-112zm0 0"/>
</svg>