<?xml version="1.0" encoding="UTF-8"?> <svg xmlns="http://www.w3.org/2000/svg" viewBox="0 0 13 10"><defs><style>.cls-1{isolation:isolate;}.cls-2{fill:#53585e;}</style></defs><title>Фигура 4</title><g id="Слой_2" data-name="Слой 2"><g id="Фигура_4" data-name="Фигура 4" class="cls-1"><g id="Фигура_4-2" data-name="Фигура 4"><path class="cls-2" d="M10.56,0H2.44A2.47,2.47,0,0,0,0,2.5v5A2.47,2.47,0,0,0,2.44,10h8.12A2.47,2.47,0,0,0,13,7.5v-5A2.47,2.47,0,0,0,10.56,0ZM2.44,1.67h8.12a.8.8,0,0,1,.52.2L6.5,5,1.92,1.87A.8.8,0,0,1,2.44,1.67Zm8.94,5L8.94,5.83l2.2,2.26a.81.81,0,0,1-.58.24H2.44a.81.81,0,0,1-.58-.24l2.2-2.26-2.44.84V3.33L6.5,6.67l4.88-3.34Z"></path></g></g></g></svg> 