<svg xmlns="http://www.w3.org/2000/svg" viewBox="0 0 40 40"><defs><style>.cls-1{isolation:isolate;}.cls-2{fill:#055092;}</style></defs><title>Forma 1 (2)</title><g id="Слой_2" data-name="Слой 2"><g id="Forma_1" data-name="Forma 1" class="cls-1"><g id="Forma_1-2" data-name="Forma 1"><path class="cls-2" d="M38.44,36.88h-3.6V32.11a1.56,1.56,0,0,0-1.56-1.56H24.69V9.38H27.5V24.3a1.56,1.56,0,0,0,3.12,0V15.36a4.79,4.79,0,0,0,1.57.27A7.82,7.82,0,0,0,32.19,0H7.81a7.82,7.82,0,0,0,0,15.63,4.79,4.79,0,0,0,1.57-.27V30.55H6.72a1.56,1.56,0,0,0-1.56,1.56v4.77H1.56a1.56,1.56,0,0,0,0,3.12H38.44a1.56,1.56,0,1,0,0-3.12ZM7.81,12.5a4.69,4.69,0,1,1,0-9.37H32.19a4.69,4.69,0,0,1,0,9.37,1.56,1.56,0,1,1,0-3.12,1.57,1.57,0,0,0,0-3.13H7.81a1.57,1.57,0,0,0,0,3.13,1.56,1.56,0,1,1,0,3.12ZM21.56,9.38V30.55H18.44V9.38Zm-6.25,0V30.55H12.5V9.38Zm16.41,27.5H8.28V33.67H31.72Z"/></g></g></g></svg>