<svg xmlns="http://www.w3.org/2000/svg" viewBox="0 0 37.97 41"><defs><style>.cls-1{isolation:isolate;}.cls-2{fill:#055092;fill-rule:evenodd;}</style></defs><title>Forma 1</title><g id="Слой_2" data-name="Слой 2"><g id="Forma_1" data-name="Forma 1" class="cls-1"><g id="Forma_1-2" data-name="Forma 1"><path class="cls-2" d="M27,17.62A1.62,1.62,0,0,0,25.31,16h-17a1.6,1.6,0,1,0,0,3.2h17A1.63,1.63,0,0,0,27,17.62Zm-18.7,4.8a1.61,1.61,0,1,0,0,3.21H18.62a1.61,1.61,0,1,0,0-3.21ZM12.15,37.8H6.62a3.26,3.26,0,0,1-3.31-3.21V6.41A3.26,3.26,0,0,1,6.62,3.2H27a3.27,3.27,0,0,1,3.31,3.21v9.85a1.66,1.66,0,0,0,3.31,0V6.41A6.52,6.52,0,0,0,27,0H6.62A6.52,6.52,0,0,0,0,6.41V34.59A6.52,6.52,0,0,0,6.62,41h5.53a1.6,1.6,0,1,0,0-3.2ZM36.52,23.19a5.09,5.09,0,0,0-7,0L20.41,32a1.67,1.67,0,0,0-.41.67l-2,6.3a1.57,1.57,0,0,0,.4,1.59A1.67,1.67,0,0,0,19.6,41a1.61,1.61,0,0,0,.44-.06l6.68-1.79a1.56,1.56,0,0,0,.73-.41L36.52,30A4.71,4.71,0,0,0,36.52,23.19Zm-11.1,13-3.36.9,1-3.14L29.17,28l2.35,2.27Zm8.76-8.46-.32.31-2.34-2.27.32-.31a1.7,1.7,0,0,1,2.34,0A1.58,1.58,0,0,1,34.18,27.72ZM25.31,9.61h-17a1.6,1.6,0,1,0,0,3.2h17a1.6,1.6,0,1,0,0-3.2Z"/></g></g></g></svg>