<svg xmlns="http://www.w3.org/2000/svg" viewBox="0 0 39.01 39.01"><defs><style>.cls-1{isolation:isolate;}.cls-2{fill:#fff;}</style></defs><title>Фигура 961</title><g id="Слой_2" data-name="Слой 2"><g id="Фигура_961" data-name="Фигура 961" class="cls-1"><g id="Фигура_961-2" data-name="Фигура 961"><path class="cls-2" d="M20.32,18.55c-1.24-.47-1.74-.78-1.74-1.26s.3-.81,1.25-.81a4.82,4.82,0,0,1,2.09.5l.42-1.65a5.37,5.37,0,0,0-2.11-.48V13.57H18.81V15a2.69,2.69,0,0,0-2.46,2.59c0,1.41,1.06,2.14,2.62,2.66,1.07.37,1.54.72,1.54,1.27s-.57.9-1.4.9a5.07,5.07,0,0,1-2.41-.64l-.44,1.7a6,6,0,0,0,2.48.63v1.38h1.42V24a2.79,2.79,0,0,0,2.59-2.69C22.75,20,22.05,19.16,20.32,18.55ZM19.51,6.17A13.34,13.34,0,1,0,32.85,19.51,13.35,13.35,0,0,0,19.51,6.17Zm0,25.46A12.13,12.13,0,1,1,31.63,19.51,12.14,12.14,0,0,1,19.51,31.63ZM19.51,0A19.51,19.51,0,1,0,39,19.51,19.53,19.53,0,0,0,19.51,0Zm0,36.59A17.08,17.08,0,1,1,36.59,19.51,17.1,17.1,0,0,1,19.51,36.59Z"/></g></g></g></svg>