<svg xmlns="http://www.w3.org/2000/svg" viewBox="0 0 40 40"><defs><style>.cls-1{isolation:isolate;}.cls-2{fill:#fff;}</style></defs><title>Фигура 963 (2)</title><g id="Слой_2" data-name="Слой 2"><g id="Фигура_963" data-name="Фигура 963" class="cls-1"><g id="Фигура_963-2" data-name="Фигура 963"><path class="cls-2" d="M20,12.5A7.5,7.5,0,1,0,27.5,20,7.5,7.5,0,0,0,20,12.5ZM20,25a5,5,0,1,1,5-5A5,5,0,0,1,20,25Zm18.62-9.4-2.36-.24a1.57,1.57,0,0,1-1.29-1c-.12-.31-.25-.62-.39-.92a1.57,1.57,0,0,1,.19-1.63L36.28,10a1.52,1.52,0,0,0-.1-2L32.1,3.82A1.49,1.49,0,0,0,31,3.37a1.56,1.56,0,0,0-1,.35L28.21,5.23a1.54,1.54,0,0,1-1,.34,1.72,1.72,0,0,1-.67-.15c-.3-.14-.61-.27-.92-.39a1.57,1.57,0,0,1-1-1.29L24.4,1.38A1.52,1.52,0,0,0,22.88,0H17.12A1.52,1.52,0,0,0,15.6,1.38l-.24,2.36a1.57,1.57,0,0,1-1,1.29c-.31.12-.62.25-.92.39a1.72,1.72,0,0,1-.67.15,1.54,1.54,0,0,1-1-.34L10,3.72a1.56,1.56,0,0,0-1-.35,1.49,1.49,0,0,0-1.08.45L3.82,7.9a1.52,1.52,0,0,0-.1,2l1.51,1.84a1.55,1.55,0,0,1,.19,1.63c-.14.3-.27.61-.39.92a1.57,1.57,0,0,1-1.29,1l-2.36.24A1.52,1.52,0,0,0,0,17.12v5.76A1.52,1.52,0,0,0,1.38,24.4l2.36.24a1.57,1.57,0,0,1,1.29,1c.12.31.25.62.39.92a1.57,1.57,0,0,1-.19,1.63L3.72,30.05a1.52,1.52,0,0,0,.1,2.05L7.9,36.18A1.49,1.49,0,0,0,9,36.63a1.56,1.56,0,0,0,1-.35l1.84-1.51a1.54,1.54,0,0,1,1.63-.19c.3.14.61.27.92.39a1.57,1.57,0,0,1,1,1.29l.24,2.36A1.52,1.52,0,0,0,17.12,40h5.76a1.52,1.52,0,0,0,1.52-1.38l.24-2.36a1.57,1.57,0,0,1,1-1.29c.31-.12.62-.25.92-.39a1.72,1.72,0,0,1,.67-.15,1.54,1.54,0,0,1,1,.34l1.84,1.51a1.56,1.56,0,0,0,1,.35,1.49,1.49,0,0,0,1.08-.45l4.08-4.08a1.52,1.52,0,0,0,.1-2.05l-1.51-1.84a1.57,1.57,0,0,1-.19-1.63c.14-.3.27-.61.39-.92a1.57,1.57,0,0,1,1.29-1l2.36-.24A1.52,1.52,0,0,0,40,22.88V17.12A1.52,1.52,0,0,0,38.62,15.6ZM37.5,22,36,22.15a4.06,4.06,0,0,0-3.38,2.62c-.1.26-.21.52-.32.77a4,4,0,0,0,.53,4.25L33.79,31,31,33.79l-1.17-.95a4,4,0,0,0-2.54-.9,4.08,4.08,0,0,0-1.71.37l-.77.32A4.06,4.06,0,0,0,22.15,36L22,37.5H18L17.85,36a4.06,4.06,0,0,0-2.62-3.38l-.77-.32a4.07,4.07,0,0,0-4.25.53L9,33.79,6.21,31l1-1.17a4,4,0,0,0,.53-4.25c-.11-.25-.22-.51-.32-.77A4.06,4.06,0,0,0,4,22.15L2.5,22V18L4,17.85a4.06,4.06,0,0,0,3.38-2.62c.1-.26.21-.52.32-.77a4,4,0,0,0-.53-4.25L6.21,9,9,6.21l1.17,1a4,4,0,0,0,2.54.91,4.09,4.09,0,0,0,1.71-.38l.77-.32A4.06,4.06,0,0,0,17.85,4L18,2.5h4L22.15,4a4.06,4.06,0,0,0,2.62,3.38l.77.32a4,4,0,0,0,4.25-.53l1.17-1L33.79,9l-.95,1.17a4,4,0,0,0-.53,4.25c.11.25.22.51.32.77A4.06,4.06,0,0,0,36,17.85L37.5,18ZM20,8.75A11.25,11.25,0,1,0,31.25,20,11.25,11.25,0,0,0,20,8.75ZM20,30A10,10,0,1,1,30,20,10,10,0,0,1,20,30Z"/></g></g></g></svg>