<svg xmlns="http://www.w3.org/2000/svg" viewBox="0 0 9 11"><defs><style>.cls-1{isolation:isolate;}.cls-2{fill:#acacac;}</style></defs><title>Фигура 1062 копия</title><g id="Слой_2" data-name="Слой 2"><g id="Фигура_1062_копия" data-name="Фигура 1062 копия" class="cls-1"><g id="Фигура_1062_копия-2" data-name="Фигура 1062 копия"><path class="cls-2" d="M8.83,6l-.36-.36a.58.58,0,0,0-.84,0L5.35,8V.62A.61.61,0,0,0,4.76,0h-.5a.63.63,0,0,0-.61.61V8L1.36,5.65A.55.55,0,0,0,1,5.47a.56.56,0,0,0-.42.18L.17,6A.59.59,0,0,0,0,6.43a.61.61,0,0,0,.17.43l3.91,4a.58.58,0,0,0,.84,0l3.91-4A.61.61,0,0,0,9,6.43.59.59,0,0,0,8.83,6Z"/></g></g></g></svg>