<svg xmlns="http://www.w3.org/2000/svg" viewBox="0 0 9 11"><defs><style>.cls-1{isolation:isolate;}.cls-2{fill:#c48b27;}</style></defs><title>Фигура 1062</title><g id="Слой_2" data-name="Слой 2"><g id="Фигура_1062" data-name="Фигура 1062" class="cls-1"><g id="Фигура_1062-2" data-name="Фигура 1062"><path class="cls-2" d="M8.83,4.14,4.92.18a.58.58,0,0,0-.84,0l-3.91,4A.63.63,0,0,0,0,4.57.59.59,0,0,0,.17,5l.36.36A.56.56,0,0,0,1,5.53a.55.55,0,0,0,.41-.18L3.65,3v7.38a.63.63,0,0,0,.61.61h.5a.61.61,0,0,0,.59-.62V3L7.63,5.35a.58.58,0,0,0,.84,0L8.83,5A.59.59,0,0,0,9,4.57.63.63,0,0,0,8.83,4.14Z"/></g></g></g></svg>