<svg xmlns="http://www.w3.org/2000/svg" viewBox="0 0 40 39.99"><defs><style>.cls-1{isolation:isolate;}.cls-2{fill:#c48b27;}</style></defs><title>Фигура 1066 (2)</title><g id="Слой_2" data-name="Слой 2"><g id="Фигура_1066" data-name="Фигура 1066" class="cls-1"><g id="Фигура_1066-2" data-name="Фигура 1066"><path class="cls-2" d="M16.38,26H13.92a.62.62,0,1,0,0,1.24h2.46a.62.62,0,0,0,0-1.24Zm-2.46-5.58h2.46a.62.62,0,0,0,0-1.24H13.92a.62.62,0,1,0,0,1.24Zm0,3.72h6.15a.62.62,0,0,0,0-1.24H13.92a.62.62,0,1,0,0,1.24Zm0-6.82h4.92a.62.62,0,0,0,0-1.24H13.92a.62.62,0,0,0,0,1.24Zm7.38,0h6.16a.62.62,0,0,0,0-1.24H21.3a.62.62,0,0,0,0,1.24Zm-2.46,1.86a.62.62,0,0,0,0,1.24h4.93a.62.62,0,0,0,0-1.24ZM4,2.48h24.7a2,2,0,0,1,2,1.76V5a1.23,1.23,0,1,0,2.46,0V4.24A4.47,4.47,0,0,0,28.73,0H4A4.06,4.06,0,0,0,0,4.24V20.45A3.9,3.9,0,0,0,1.26,23.5a.94.94,0,0,0,.7.31,1.35,1.35,0,0,0,1-.42,1.24,1.24,0,0,0,0-1.75,1.42,1.42,0,0,1-.43-1.19V4.24A1.58,1.58,0,0,1,4,2.48ZM32.38,16.12H29.92a.62.62,0,0,0,0,1.24h2.46a.62.62,0,0,0,0-1.24ZM35.5,9.3H10.8a4.06,4.06,0,0,0-4,4.24V29.75a4.12,4.12,0,0,0,4,4.35h3.09l-.12,4.62a1.23,1.23,0,0,0,.65,1.13A1.3,1.3,0,0,0,15,40a1.23,1.23,0,0,0,.71-.23l7.84-5.66h12A4.52,4.52,0,0,0,40,29.75V13.54A4.47,4.47,0,0,0,35.5,9.3Zm2,20.45a2.08,2.08,0,0,1-2,1.87H23.15a1.23,1.23,0,0,0-.72.23l-6.14,4.44.09-3.4a1.25,1.25,0,0,0-1.23-1.27H10.8a1.68,1.68,0,0,1-1.57-1.87V13.54a1.58,1.58,0,0,1,1.57-1.76H35.5a2,2,0,0,1,2,1.76ZM32.38,19.22H26.23a.62.62,0,0,0,0,1.24h6.15a.62.62,0,1,0,0-1.24Zm0,3.72H31.15a.62.62,0,0,0,0,1.24h1.23a.62.62,0,0,0,0-1.24Zm-3.69,0H22.53a.62.62,0,0,0,0,1.24h6.16a.62.62,0,0,0,0-1.24ZM23.15,26H18.84a.62.62,0,0,0,0,1.24h4.31a.62.62,0,1,0,0-1.24Z"/></g></g></g></svg>