<svg xmlns="http://www.w3.org/2000/svg" viewBox="0 0 30 39.99"><defs><style>.cls-1{isolation:isolate;}.cls-2{fill:#fff;}</style></defs><title>Фигура 963</title><g id="Слой_2" data-name="Слой 2"><g id="Фигура_963" data-name="Фигура 963" class="cls-1"><g id="Фигура_963-2" data-name="Фигура 963"><path class="cls-2" d="M23.18,23.87a2.55,2.55,0,0,0-1.33-.45,2.53,2.53,0,0,0-1.22.32,11.59,11.59,0,0,1-11.26,0,2.52,2.52,0,0,0-1.22-.31,2.47,2.47,0,0,0-1.33.38C2.87,26.31,0,32.07,0,37.37A2.61,2.61,0,0,0,2.5,40h25A2.61,2.61,0,0,0,30,37.37C30,32.07,27.13,26.36,23.18,23.87ZM2.5,37.48c0-4.4,2.25-9.28,5.65-11.43a14.07,14.07,0,0,0,13.7,0c3.4,2.15,5.65,7,5.65,11.43ZM15,20.12c5.23,0,8.44-7.53,8.44-11.63a8.44,8.44,0,1,0-16.88,0C6.55,12.59,9.75,20.12,15,20.12ZM9.05,8.49a5.94,5.94,0,1,1,11.88,0c0,.12,0,.25,0,.38L19.44,5.78a.64.64,0,0,0-.57-.36H11.1a.62.62,0,0,0-.56.36L9.07,8.91C9.06,8.77,9.05,8.62,9.05,8.49Zm.5,2.35L11.5,6.68h7l1.95,4.1a.74.74,0,0,0,.12.17c-.83,3.12-3,6.65-5.56,6.65S10.28,14.11,9.44,11A.91.91,0,0,0,9.55,10.84Zm5,23.6a.64.64,0,0,0-.19.45.65.65,0,0,0,.63.63.63.63,0,0,0,.44-.19.6.6,0,0,0,.18-.44.62.62,0,0,0-1.06-.45Zm5.08-6.7L15,30.47l-4.69-2.73a.63.63,0,0,0-.94.55v6.05a.63.63,0,0,0,.31.54A.62.62,0,0,0,10,35a.61.61,0,0,0,.31-.09L15,32.16l4.68,2.72A.62.62,0,0,0,20,35a.61.61,0,0,0,.31-.09.63.63,0,0,0,.31-.54V28.29a.63.63,0,0,0-.94-.55Zm-9.06,5.51V29.38l3.33,1.93Zm8.75,0L16,31.31l3.33-1.93Z"/></g></g></g></svg>