<svg xmlns="http://www.w3.org/2000/svg" viewBox="0 0 43 39"><defs><style>.cls-1{isolation:isolate;}.cls-2{fill:#fff;}</style></defs><title>Фигура 957</title><g id="Слой_2" data-name="Слой 2"><g id="Фигура_957" data-name="Фигура 957" class="cls-1"><g id="Фигура_957-2" data-name="Фигура 957"><path class="cls-2" d="M22.48,4H39.27a1.34,1.34,0,1,0,0-2.68H22.48a1.34,1.34,0,1,0,0,2.68ZM37.31,26.54a.71.71,0,0,0,.48-.19.73.73,0,0,0,.19-.48.67.67,0,1,0-1.34,0,.65.65,0,0,0,.67.67ZM38,6.72H19.41L18,1a1.33,1.33,0,0,0-1.3-1H4.29A4.4,4.4,0,0,0,0,4.7V34.38A4.33,4.33,0,0,0,4.29,39H38a5,5,0,0,0,5-4.62v-23A5,5,0,0,0,38,6.72Zm2.33,27.66A2.28,2.28,0,0,1,38,36.31H4.29c-1.09,0-1.6-.84-1.6-1.93V4.7c0-1.08.51-2,1.6-2H15.67l1.38,5.7a1.33,1.33,0,0,0,1.3,1H38a2.36,2.36,0,0,1,2.33,2Zm-2.68-6.1A.67.67,0,0,0,37,29V31.4c0,1.48-.83,1.55-1.5,1.55H28.52a.67.67,0,0,0,0,1.34h6.93A2.63,2.63,0,0,0,38.3,31.4V29A.67.67,0,0,0,37.63,28.28Z"/></g></g></g></svg>