<svg xmlns="http://www.w3.org/2000/svg" viewBox="0 0 26.99 41.01"><defs><style>.cls-1{isolation:isolate;}.cls-2{fill:#fff;}</style></defs><title>Фигура 958</title><g id="Слой_2" data-name="Слой 2"><g id="Фигура_958" data-name="Фигура 958" class="cls-1"><g id="Фигура_958-2" data-name="Фигура 958"><path class="cls-2" d="M10.62,4.46a8.19,8.19,0,0,0-5.9,4.22A.63.63,0,0,0,5,9.53a.71.71,0,0,0,.28.06.69.69,0,0,0,.61-.37,7,7,0,0,1,4.76-3.48.65.65,0,0,0,.63-.67A.63.63,0,0,0,10.62,4.46ZM23.15,22.59C27,18,28,12.38,25.94,7.7a13.21,13.21,0,0,0-11-7.64,17,17,0,0,0-2.85,0,13.21,13.21,0,0,0-11,7.64C-1,12.38,0,18,3.82,22.57c.36.46.7.86,1,1.24A8.58,8.58,0,0,1,6.8,27a3.29,3.29,0,0,0-1.72,1,3,3,0,0,0-.76,2.5L4.84,34a5.2,5.2,0,0,0,3.75,4.21,5.4,5.4,0,0,0,9.46,0A5.17,5.17,0,0,0,21.8,34l.53-3.52a3.1,3.1,0,0,0-.76-2.5,3.42,3.42,0,0,0-1.43-.9,8.2,8.2,0,0,1,2-3.27C22.46,23.43,22.81,23,23.15,22.59ZM13.32,38.45a2.66,2.66,0,0,1-2.51-1.75,1.33,1.33,0,0,0-1.06-.86A2.68,2.68,0,0,1,8,34.75L15.68,37A2.63,2.63,0,0,1,13.32,38.45Zm3.57-2.61-.25.07L7.42,33.25l-.25-1.68,11.42,3.3A2.72,2.72,0,0,1,16.89,35.84Zm2.28-2.2a.08.08,0,0,0,0,0L7,30.17v-.06a.52.52,0,0,1,.13-.44.6.6,0,0,1,.45-.2h2.57l9.28,2.68Zm-6.58-6.73a40.09,40.09,0,0,0-1.38-8.35c.82,0,1.54,0,2,0s1.18,0,2,0a40.09,40.09,0,0,0-1.38,8.35Zm7,3.95-4.83-1.39h4.36a.55.55,0,0,1,.44.2.52.52,0,0,1,.14.44Zm.49-8.66a10.07,10.07,0,0,0-2.6,4.71H15.18a37.88,37.88,0,0,1,1.45-8.45c1.64-.18,3.26-.6,3.74-1.53a2.87,2.87,0,0,0-.46-3.46,1.48,1.48,0,0,0-1.9.12,8.8,8.8,0,0,0-2.34,3.65,23.18,23.18,0,0,1-2.36.05h-.19a23.18,23.18,0,0,1-2.36-.05,8.7,8.7,0,0,0-2.34-3.65,1.48,1.48,0,0,0-1.9-.12,2.87,2.87,0,0,0-.46,3.46c.48.93,2.11,1.35,3.74,1.53a37.88,37.88,0,0,1,1.45,8.45H9.53A10.22,10.22,0,0,0,6.92,22.2c-.3-.36-.63-.75-1-1.21C2.68,17,1.79,12.56,3.5,8.7a10.63,10.63,0,0,1,9-6.11,14.53,14.53,0,0,1,2,0,10.64,10.64,0,0,1,9,6.11C25.2,12.56,24.31,17,21,21,20.7,21.45,20.37,21.84,20.07,22.2Zm-2.92-5.12a6.59,6.59,0,0,1,1.72-2.51.47.47,0,0,1,.19-.11.56.56,0,0,1,.2.26,2,2,0,0,1-.08,1.64C19,16.67,18.22,16.92,17.15,17.08Zm-7.87,0c-1.07-.16-1.86-.41-2-.72a2,2,0,0,1-.08-1.64.56.56,0,0,1,.2-.26.47.47,0,0,1,.19.11A6.59,6.59,0,0,1,9.28,17.08Z"/></g></g></g></svg>