<?xml version="1.0" encoding="UTF-8"?> <svg xmlns="http://www.w3.org/2000/svg" viewBox="0 0 163.98 230"><defs><style>.cls-1{fill:none;stroke:#354157;stroke-linecap:round;stroke-linejoin:round;stroke-width:10px;}.cls-2{fill:#354157;}</style></defs><title>01</title><g id="Слой_2" data-name="Слой 2"><g id="Elements"><g id="_01" data-name="01"><path class="cls-1" d="M51.83,152.21V64.59a17.58,17.58,0,0,0-5.15-12.44l-5.23-5.23a7.82,7.82,0,0,1,0-11.05l9.95-9.94a14.34,14.34,0,0,1,10.16-4.21h40.93a14.35,14.35,0,0,1,10.17,4.21l10,9.94a7.82,7.82,0,0,1,0,11.05l-5.24,5.23a17.62,17.62,0,0,0-5.15,12.44v87.62"></path><path class="cls-1" d="M100.36,94.37A18.33,18.33,0,1,0,82,112.71,18.33,18.33,0,0,0,100.36,94.37Z"></path><path class="cls-1" d="M51.83,73.48l3.1-7.23a13,13,0,0,1,11.94-7.87H97.19a13,13,0,0,1,11.94,7.87l3.09,7.23"></path><path class="cls-1" d="M112.22,115.27l-3.09,7.23a13,13,0,0,1-11.94,7.87H66.87a13,13,0,0,1-11.94-7.87l-3.1-7.23"></path><path class="cls-1" d="M30.8,198.58H23.46a7.35,7.35,0,0,1-7.35-7.35V40.72a11.05,11.05,0,0,1,3.24-7.81L42.6,9.65A15.88,15.88,0,0,1,53.83,5h56.39a15.89,15.89,0,0,1,11.24,4.65l23.25,23.26A11.05,11.05,0,0,1,148,40.72V191.23a7.35,7.35,0,0,1-7.35,7.35h-7.35"></path><path class="cls-1" d="M123.55,152.21a9.7,9.7,0,0,1,9.7,9.7v36.67H30.8V161.91a9.7,9.7,0,0,1,9.71-9.7Z"></path><rect class="cls-1" x="44.28" y="164.07" width="43.68" height="21.03"></rect><rect class="cls-1" x="36.74" y="212.6" width="90.59" height="12.4" rx="4.85"></rect><line class="cls-1" x1="132.44" y1="198.58" x2="117.34" y2="212.6"></line><line class="cls-1" x1="31.61" y1="198.58" x2="46.71" y2="212.6"></line><polyline class="cls-1" points="147.95 80.49 158.98 80.49 158.98 101.79 147.95 101.79"></polyline><polyline class="cls-1" points="16.11 185.1 5 185.1 5 164.76 16.11 164.76"></polyline><path class="cls-2" d="M109.54,167.17a5,5,0,1,1-5-5A5,5,0,0,1,109.54,167.17Z"></path><path class="cls-2" d="M125.15,167.17a5,5,0,1,1-5-5A5,5,0,0,1,125.15,167.17Z"></path><path class="cls-2" d="M109.54,183a5,5,0,1,1-5-5A5,5,0,0,1,109.54,183Z"></path><path class="cls-2" d="M125,183a4.82,4.82,0,1,1-4.82-4.82A4.81,4.81,0,0,1,125,183Z"></path></g></g></g></svg> 