<?xml version="1.0" encoding="UTF-8"?> <svg xmlns="http://www.w3.org/2000/svg" viewBox="0 0 149.78 230"><defs><style>.cls-1{fill:#354157;}.cls-2{fill:none;stroke:#354157;stroke-linecap:round;stroke-linejoin:round;stroke-width:10px;}</style></defs><title>02</title><g id="Слой_2" data-name="Слой 2"><g id="Elements"><g id="_13" data-name="13"><path class="cls-1" d="M113.83,151.23a5,5,0,1,1-5-5A5,5,0,0,1,113.83,151.23Z"></path><path class="cls-1" d="M35.94,151.23a5,5,0,1,0,5-5A5,5,0,0,0,35.94,151.23Z"></path><path class="cls-1" d="M113.83,171.53a5,5,0,1,1-5-5A5,5,0,0,1,113.83,171.53Z"></path><path class="cls-1" d="M35.94,171.53a5,5,0,1,0,5-5A5,5,0,0,0,35.94,171.53Z"></path><path class="cls-1" d="M113.83,191.83a5,5,0,1,1-5-5A5,5,0,0,1,113.83,191.83Z"></path><path class="cls-1" d="M35.94,191.83a5,5,0,1,0,5-5A5,5,0,0,0,35.94,191.83Z"></path><line class="cls-2" x1="136.08" y1="183.12" x2="136.08" y2="46.87"></line><line class="cls-2" x1="13.7" y1="183.12" x2="13.7" y2="46.87"></line><line class="cls-2" x1="98.09" y1="216.6" x2="51.69" y2="216.6"></line><path class="cls-2" d="M124.49,5a20.32,20.32,0,0,1,20.29,20.29V38.18a8.7,8.7,0,0,1-17.4,0V25.29a2.9,2.9,0,0,0-2.89-2.9H25.29a2.9,2.9,0,0,0-2.9,2.9V38.18A8.7,8.7,0,0,1,5,38.18V25.29A20.31,20.31,0,0,1,25.29,5Z"></path><path class="cls-2" d="M124.49,225a20.31,20.31,0,0,0,20.29-20.29V191.82a8.7,8.7,0,0,0-17.39,0v12.89a2.91,2.91,0,0,1-2.9,2.9H106.77a8.7,8.7,0,1,0,0,17.39Z"></path><path class="cls-2" d="M25.29,225A20.31,20.31,0,0,1,5,204.71V191.82a8.7,8.7,0,0,1,17.39,0v12.89a2.9,2.9,0,0,0,2.9,2.9H43A8.7,8.7,0,1,1,43,225Z"></path><rect class="cls-2" x="31.41" y="46.87" width="86.96" height="74.41"></rect><path class="cls-2" d="M74.89,187.92a16.39,16.39,0,1,0-16.06-16.39A16.4,16.4,0,0,0,74.89,187.92Z"></path></g></g></g></svg> 