<?xml version="1.0" encoding="UTF-8"?> <svg xmlns="http://www.w3.org/2000/svg" viewBox="0 0 29.01 35"><defs><style>.cls-1{isolation:isolate;}.cls-2{fill:#cc9933}</style></defs><title>Фигура 1063</title><g id="Слой_2" data-name="Слой 2"><g id="Фигура_1063" data-name="Фигура 1063" class="cls-1"><g id="Фигура_1063-2" data-name="Фигура 1063"><path class="cls-2" d="M18.39,27.61a.72.72,0,0,0,.71-.73V25.09a.71.71,0,1,0-1.42,0v1.79A.72.72,0,0,0,18.39,27.61Zm-6.26-9.35H4.92A.72.72,0,0,0,4.2,19v7.89a.73.73,0,0,0,.72.73h7.21a.73.73,0,0,0,.72-.73V19A.72.72,0,0,0,12.13,18.26Zm-.71,7.89H5.63V19.72h5.79Zm17-12.74L16,.65a2.1,2.1,0,0,0-3,0L7.37,6.44V4.71a1.07,1.07,0,1,0-2.14,0V8.65L.62,13.41A2.22,2.22,0,0,0,0,15V32.81A2.17,2.17,0,0,0,2.14,35H26.86A2.17,2.17,0,0,0,29,32.81V15A2.23,2.23,0,0,0,28.38,13.41Zm-5.2,19.4H16.49V19.72h6.69Zm3.68,0H24.6V19a.71.71,0,0,0-.71-.73H15.77a.72.72,0,0,0-.71.73V32.81H2.14V15.69H19.38a.74.74,0,0,0,0-1.47H2.85l11.65-12,11.66,12H23.5a.74.74,0,0,0,0,1.47h3.36Z"></path></g></g></g></svg> 