<?xml version="1.0" encoding="UTF-8"?> <svg xmlns="http://www.w3.org/2000/svg" height="498pt" viewBox="-2 0 498 498.416" width="498pt" style="fill:#cc9933"><path d="m480.207031 130.414062h14.136719l-57.601562-96h-171.238282l-41.296875-34.414062-118.09375 98.414062h22.09375v80h-48v-64h-40c-22.054687 0-40 17.945313-40 40v304c0 22.058594 17.945313 40 40 40h376v-208h64zm-52.527343-80 38.398437 64h-145.871094v-16h22.097657l-57.601563-48zm-203.472657-29.582031 73.90625 61.582031h-147.808593zm-80 77.582031h160v80h-32v-24c0-22.054687-17.941406-40-40-40h-16c-22.054687 0-40 17.945313-40 40v24h-32zm72 80h-24v-24c0-13.230468 10.769531-24 24-24zm16-48c13.234375 0 24 10.769532 24 24v24h-24zm-216 24c0-13.230468 10.769531-24 24-24h24v288h-24c-9 0-17.3125 2.984376-24 8.019532zm384 328h-360c-13.230469 0-24-10.765624-24-24 0-13.230468 10.769531-24 24-24h40v-240h320zm16-208v-96h-96v-48h144v144zm0 0"></path><path d="m136.207031 466.414062h208c22.058594 0 40-17.941406 40-40v-176c0-22.054687-17.941406-40-40-40h-208c-22.054687 0-40 17.945313-40 40v176c0 22.058594 17.945313 40 40 40zm-24-40v-56h96v80h-72c-13.230469 0-24-10.765624-24-24zm160-200h32v96h64v32h-112v96h-32v-96h-112v-32h160zm72 224h-72v-80h96v56c0 13.234376-10.765625 24-24 24zm24-200v56h-48v-80h24c13.234375 0 24 10.769532 24 24zm-232-24h120v80h-144v-56c0-13.230468 10.769531-24 24-24zm0 0"></path></svg> 