<?xml version="1.0" encoding="UTF-8"?> <svg xmlns="http://www.w3.org/2000/svg" viewBox="0 0 128.24 74.94"><defs><style>.cls-1{fill:#fff;}.cls-2{fill:#fff;}</style></defs><title>Логотип</title><g id="Слой_2" data-name="Слой 2"><g id="Layer_1" data-name="Layer 1"><path class="cls-1" d="M9.09,42.11h-5V56.26H0V25.45H4.07V38.52h5.1c.87-7.87,6-13.59,14.41-13.59,9.35,0,14.58,7,14.58,15.93,0,9.34-5.27,15.92-14.58,15.92C14.8,56.78,9.61,50.81,9.09,42.11Zm4.24-1.25c0,6.23,3.11,12.37,10.25,12.37s10.3-6.14,10.3-12.37-3.37-12.38-10.3-12.38S13.33,34.54,13.33,40.86Z"></path><path class="cls-1" d="M47,40.43h-.17V56.26h-4V25.45h4V40H47L61.45,25.45h5.24L51.89,40,68.25,56.26H62.88Z"></path><path class="cls-1" d="M98.41,40.86c0-9-6.23-15.93-15.84-15.93-9.82,0-15.88,7-15.88,15.93,0,9.34,6.1,15.92,15.88,15.92C92.05,56.78,98.41,50.2,98.41,40.86Zm-4.28,0c0,6.27-4.24,12.37-11.56,12.37C75,53.23,71,47.13,71,40.86s4-12.38,11.59-12.38C90,28.48,94.13,34.5,94.13,40.86Z"></path><path class="cls-1" d="M124.18,42.11H106.87V56.26H102.8V25.45h4.07V38.52h17.31V25.45h4.06V56.26h-4.06Z"></path><path class="cls-2" d="M0,62.63V74.94H59L73.38,62.63ZM11,72.87H9.93V65.63H5.83v7.24H4.74V64.71H11Zm13.9,0H23.84V65.63H20.91v2.82c0,3.77-1.39,4.68-3,4.42v-1c1.06.2,1.93-.62,1.93-3.7v-3.5h5.11Zm13.55.24c-3,0-3.8-2.23-3.88-4.08H33.42v3.84H32.33V64.71h1.09v3.4h1.23a3.67,3.67,0,0,1,3.83-3.65c2.25,0,3.91,1.47,3.91,4.33C42.39,71.16,41.26,73.11,38.48,73.11Zm13.91,0c-2.42,0-3.88-1.57-3.88-4.18,0-4.34,3.16-4.47,3.85-4.47,2.6,0,3.25,1.53,3.38,2.76h-1.1a2,2,0,0,0-2.28-1.84c-2,0-2.69,1.72-2.69,3.5s1,3.31,2.77,3.31a2.18,2.18,0,0,0,2.31-2h1.09A3.15,3.15,0,0,1,52.39,73.11Z"></path><path class="cls-2" d="M38.49,65.38c-.85,0-2.72.36-2.72,3.41,0,1.78.72,3.4,2.72,3.4,2.35,0,2.73-2.1,2.73-3.4C41.22,65.76,39.38,65.38,38.49,65.38Z"></path><polygon class="cls-1" points="128.23 17.05 120.11 17.05 121.82 15.59 128.23 15.59 128.23 17.05"></polygon><polygon class="cls-1" points="71.46 17.05 0.03 17.05 0.03 15.59 73.17 15.59 71.46 17.05"></polygon><path class="cls-2" d="M121.92,5.18,128,0H79.3L68.94,8.81H75L68.94,14H75l-6.1,5.19h48.72L128,10.37h-6.1L128,5.18Zm-41.83-3h42.14l-5.36,4.55H74.74ZM78.33,8.81h39.33l1.76-1.5h2.81l-5.36,4.55H74.74Zm43.9,3.69-5.36,4.55H74.74L78.33,14h39.33l1.76-1.49Z"></path></g></g></svg> 