<?xml version="1.0" encoding="UTF-8"?> <svg xmlns="http://www.w3.org/2000/svg" viewBox="0 0 37 36.99"><defs><style>.cls-1{isolation:isolate;}.cls-2{fill:#c48b27;}</style></defs><title>Фигура 1065</title><g id="Слой_2" data-name="Слой 2"><g id="Фигура_1065" data-name="Фигура 1065" class="cls-1"><g id="Фигура_1065-2" data-name="Фигура 1065"><path class="cls-2" d="M37,13.7a.93.93,0,0,0,0-.23s0,0,0,0l0-.06a2.14,2.14,0,0,0-.1-.22l0-.05-.07,0a.23.23,0,0,0-.07-.07,1.42,1.42,0,0,0-.12-.13L31.22,9V5.67a2.32,2.32,0,0,0-2.31-2.32H23.42s-.05-.08-.09-.1l-4.15-3a1.17,1.17,0,0,0-1.36,0l-4,2.92a1,1,0,0,0-.19.21H8.09A2.32,2.32,0,0,0,5.78,5.67V9L.48,12.85A1.42,1.42,0,0,0,.36,13a.23.23,0,0,0-.07.07l-.07,0,0,.05a2.14,2.14,0,0,0-.1.22l0,.06s0,0,0,0a.93.93,0,0,0,0,.23.29.29,0,0,0,0,.09V34.67A2.32,2.32,0,0,0,2.31,37H34.69A2.32,2.32,0,0,0,37,34.67V13.79A.29.29,0,0,0,37,13.7Zm-5.76-1.85,2.66,1.94-2.66,2ZM18.5,2.59l1,.76H17.47ZM8.09,17.27V5.67H28.91V8h-15a.58.58,0,1,0,0,1.16h15v8.12a.8.8,0,0,0,0,.15l-8.18,6-1.59-1.15a1.14,1.14,0,0,0-1.34,0l-1.59,1.15-8.18-6A.8.8,0,0,0,8.09,17.27ZM5.78,11.85v3.89l-2.66-2ZM2.31,16.07l12,8.76L2.31,33.43Zm2.24,18.6,14-10,13.94,10Zm30.14-1.24-11.95-8.6,12-8.76Z"></path></g></g></g></svg> 