<?xml version="1.0" encoding="UTF-8"?> <svg xmlns="http://www.w3.org/2000/svg" viewBox="0 0 230 224.78"><defs><style>.cls-1{fill:none;stroke:#354157;stroke-linecap:round;stroke-linejoin:round;stroke-width:10px;}</style></defs><title>03</title><g id="Слой_2" data-name="Слой 2"><g id="Elements"><g id="_07" data-name="07"><line class="cls-1" x1="79.81" y1="155.24" x2="60.89" y2="155.24"></line><polyline class="cls-1" points="119.79 194.33 113.03 194.33 60.59 194.33"></polyline><polyline class="cls-1" points="132.71 194.33 141.01 194.33 195.38 194.33 195.38 155.24 195.38 125.46 195.38 86.34 146.23 86.34 60.89 86.34"></polyline><line class="cls-1" x1="104.41" y1="125.15" x2="60.89" y2="125.15"></line><line class="cls-1" x1="124.04" y1="125.46" x2="168.07" y2="125.46"></line><line class="cls-1" x1="183.75" y1="125.46" x2="195.38" y2="125.46"></line><line class="cls-1" x1="146.24" y1="86.34" x2="146.24" y2="125.15"></line><polyline class="cls-1" points="98.24 155.24 113.03 155.24 113.03 194.33"></polyline><line class="cls-1" x1="141.01" y1="155.24" x2="151.16" y2="155.24"></line><line class="cls-1" x1="166.53" y1="155.24" x2="195.38" y2="155.24"></line><line class="cls-1" x1="141.01" y1="155.24" x2="141.01" y2="194.33"></line><path class="cls-1" d="M5,33a27.95,27.95,0,1,1,55.9,0"></path><line class="cls-1" x1="5" y1="32.95" x2="5" y2="191.83"></line><line class="cls-1" x1="60.9" y1="32.95" x2="60.89" y2="191.13"></line><path class="cls-1" d="M33,219.78A28,28,0,1,1,60.89,189.3"></path><path class="cls-1" d="M33,204.93a17.38,17.38,0,0,0,27.94-13.8"></path><polyline class="cls-1" points="60.9 60.9 225 60.9 225 219.78 32.95 219.78"></polyline><line class="cls-1" x1="32.95" y1="204.93" x2="32.95" y2="163.88"></line></g></g></g></svg> 