<?xml version="1.0" encoding="UTF-8"?> <svg xmlns="http://www.w3.org/2000/svg" viewBox="0 0 40 40"><defs><style>.cls-1{isolation:isolate;}.cls-2{fill:#cc9933}</style></defs><title>Фигура 942</title><g id="Слой_2" data-name="Слой 2"><g id="Фигура_942" data-name="Фигура 942" class="cls-1"><g id="Фигура_942-2" data-name="Фигура 942"><path class="cls-2" d="M15.77,14a.63.63,0,0,0-.88.89l.88.88a.63.63,0,0,0,.45.19.59.59,0,0,0,.44-.19.63.63,0,0,0,0-.88Zm23-.86A1.24,1.24,0,0,0,40,11.87V1.25A1.25,1.25,0,0,0,38.75,0H27.5a1.25,1.25,0,0,0-1.25,1.25V5H13.75V1.25A1.25,1.25,0,0,0,12.5,0H1.25A1.25,1.25,0,0,0,0,1.25V11.87a1.24,1.24,0,0,0,1.25,1.25H5V26.87H1.25A1.25,1.25,0,0,0,0,28.12V38.75A1.25,1.25,0,0,0,1.25,40H12.5a1.25,1.25,0,0,0,1.25-1.25V35h12.5v3.75A1.25,1.25,0,0,0,27.5,40H38.75A1.25,1.25,0,0,0,40,38.75V28.12a1.25,1.25,0,0,0-1.25-1.25H34.38V13.12ZM2.5,10.62V2.5h8.75v8.12ZM11.25,37.5H2.5V29.37h8.75Zm15-9.38V32.5H13.75V28.4l.25-.25a.63.63,0,0,0,0-.88.61.61,0,0,0-.72-.11,1.19,1.19,0,0,0-.78-.29h-5V13.12h5A1.32,1.32,0,0,0,13,13l.09.09a.63.63,0,0,0,.88,0,.64.64,0,0,0,0-.89L13.74,12s0,0,0-.08V7.5h12.5v4.37a1.24,1.24,0,0,0,1.25,1.25h.71a.64.64,0,0,0,.4.16.61.61,0,0,0,.4-.16h2.87V26.87H27.5A1.25,1.25,0,0,0,26.25,28.12ZM37.5,29.37V37.5H28.75V29.37ZM28.75,10.62V2.5H37.5v8.12Zm-13,14-.88.88a.63.63,0,0,0,.88.89l.89-.89a.63.63,0,0,0,0-.88A.64.64,0,0,0,15.77,24.61ZM18.43,22l-.89.89a.63.63,0,0,0,0,.88.67.67,0,0,0,.45.19.63.63,0,0,0,.44-.19l.88-.88a.63.63,0,0,0-.88-.89Zm5.31,0a.63.63,0,1,0-.88.89l.88.88a.63.63,0,0,0,.44.19.67.67,0,0,0,.45-.19.63.63,0,0,0,0-.88Zm2.66,2.66a.64.64,0,0,0-.89,0,.63.63,0,0,0,0,.88l.89.89a.63.63,0,0,0,.88,0,.61.61,0,0,0,0-.88ZM26.4,14l-.89.89a.63.63,0,0,0,0,.88.67.67,0,0,0,.45.19.63.63,0,0,0,.44-.19l.88-.88A.63.63,0,0,0,26.4,14Zm-8,2.66a.64.64,0,0,0-.89,0,.63.63,0,0,0,0,.88l.89.89a.63.63,0,0,0,.88,0,.61.61,0,0,0,0-.88Zm5.31,0-.88.89a.61.61,0,0,0,0,.88.63.63,0,0,0,.88,0l.89-.89a.63.63,0,0,0,0-.88A.64.64,0,0,0,23.74,16.64ZM22,19.3a.61.61,0,0,0-.88,0h0a.61.61,0,0,0-.88,0,.63.63,0,0,0,0,.88h0a.64.64,0,0,0,0,.89.63.63,0,0,0,.88,0h0a.63.63,0,0,0,.88,0,.64.64,0,0,0,0-.89h0A.63.63,0,0,0,22,19.3Z"></path></g></g></g></svg> 