<?xml version="1.0" encoding="UTF-8"?> <svg xmlns="http://www.w3.org/2000/svg" style="fill:#cc9933" height="496pt" viewBox="0 0 496 496" width="496pt"><path d="m496 176v-21.414062l-18.246094-7.304688c-16.011718-6.410156-29.53125-17.378906-39.097656-31.722656l-2.375-3.558594h-100.28125c0-8.824219-7.175781-16-16-16h-3.40625l-56-96h-25.1875l-56 96h-3.40625c-8.824219 0-16 7.175781-16 16h-100.28125l-2.375 3.558594c-9.566406 14.34375-23.085938 25.3125-39.097656 31.722656l-18.246094 7.304688v21.414062h32v112h-32v208h496v-208h-32v-112zm-160-48h91.832031c10.113281 13.855469 23.464844 24.808594 39.015625 32h-146.847656v-16c8.824219 0 16-7.175781 16-16zm64 160v-80h-64v80h-16v-112h96v112zm-16 0h-32v-64h32zm-.96875 80h-14.0625c-4.945312 0-8.96875-4.023438-8.96875-8.96875 0-2.359375.960938-4.671875 2.625-6.34375l13.375-13.375 13.375 13.375c1.664062 1.671875 2.625 3.984375 2.625 6.34375 0 4.945312-4.023438 8.96875-8.96875 8.96875zm-14.0625 16h14.0625c.328125 0 .640625-.089844.96875-.097656v96.097656h-16v-96.097656c.328125.007812.640625.097656.96875.097656zm-241.9375-16h-14.0625c-4.945312 0-8.96875-4.023438-8.96875-8.96875 0-2.359375.960938-4.671875 2.625-6.34375l13.375-13.375 13.375 13.375c1.664062 1.671875 2.625 3.984375 2.625 6.34375 0 4.945312-4.023438 8.96875-8.96875 8.96875zm-15.03125 15.902344c.328125.007812.640625.097656.96875.097656h14.0625c.328125 0 .640625-.089844.96875-.097656v96.097656h-16zm32-95.902344h-32v-64h32zm-48-80v80h-16v-112h96v112h-16v-80zm208-64v144h-16v-59.488281c0-10.769531-5.984375-20.457031-15.609375-25.265625-1.902344-.949219-3.535156-2.390625-4.710937-4.167969l-19.679688-29.503906-19.679688 29.515625c-1.175781 1.765625-2.808593 3.199218-4.703124 4.15625-9.632813 4.816406-15.617188 14.507812-15.617188 25.265625v59.488281h-16v-144zm-32 144h-48v-59.488281c0-4.671875 2.59375-8.863281 6.777344-10.953125 4.390625-2.199219 8.152344-5.519532 10.863281-9.597656l6.359375-9.535157 6.359375 9.527344c2.710937 4.085937 6.472656 7.40625 10.871094 9.605469 4.175781 2.089844 6.769531 6.28125 6.769531 10.953125zm-121.753906 176h195.507812l4 16h-203.507812zm4-16 4-16h179.507812l4 16zm8-32 4-16h163.507812l4 16zm8-32 4-16h147.507812l4 16zm8-32 4-16h131.507812l4 16zm131.507812-32h-123.507812l4-16h115.507812zm-65.160156-304h6.8125l46.664062 80h-100.140624zm-68.59375 96h144v16h-144l-.007812-16zm-107.832031 16h91.832031c0 8.824219 7.175781 16 16 16v16h-146.847656c15.550781-7.191406 28.902344-18.144531 39.015625-32zm-20.167969 48h16v112h-16zm125.753906 128-29.753906 119.015625v-45.777344c4.886719-4.558593 8-11.007812 8-18.207031 0-6.574219-2.664062-13.007812-7.3125-17.65625l-24.6875-24.6875-24.6875 24.6875c-4.648438 4.648438-7.3125 11.082031-7.3125 17.65625 0 7.199219 3.113281 13.648438 8 18.207031v54.761719h-9.734375c1.078125-2.792969 1.734375-5.800781 1.734375-8.96875 0-6.574219-2.664062-13.007812-7.3125-17.65625l-24.6875-24.6875-24.6875 24.6875c-4.648438 4.648438-7.3125 11.082031-7.3125 17.65625 0 3.167969.65625 6.175781 1.734375 8.96875h-9.734375v-128zm-133.753906 119.03125c0-2.359375.960938-4.671875 2.625-6.34375l13.375-13.375 13.375 13.375c1.664062 1.671875 2.625 3.984375 2.625 6.34375 0 4.945312-4.023438 8.96875-8.96875 8.96875h-14.0625c-4.945312 0-8.96875-4.023438-8.96875-8.96875zm-24 24.96875h80v32h-80zm384 32v-32h80v32zm24-56.96875c0-2.359375.960938-4.671875 2.625-6.34375l13.375-13.375 13.375 13.375c1.664062 1.671875 2.625 3.984375 2.625 6.34375 0 4.945312-4.023438 8.96875-8.96875 8.96875h-14.0625c-4.945312 0-8.96875-4.023438-8.96875-8.96875zm56 8.96875h-9.734375c1.078125-2.792969 1.734375-5.800781 1.734375-8.96875 0-6.574219-2.664062-13.007812-7.3125-17.65625l-24.6875-24.6875-24.6875 24.6875c-4.648438 4.648438-7.3125 11.082031-7.3125 17.65625 0 3.167969.65625 6.175781 1.734375 8.96875h-9.734375v-54.761719c4.886719-4.558593 8-11.007812 8-18.207031 0-6.574219-2.664062-13.007812-7.3125-17.65625l-24.6875-24.6875-24.6875 24.6875c-4.648438 4.648438-7.3125 11.082031-7.3125 17.65625 0 7.199219 3.113281 13.648438 8 18.207031v45.777344l-29.753906-119.015625h157.753906zm-32-144h-16v-112h16zm0 0"></path></svg> 