<?xml version="1.0" encoding="UTF-8"?> <svg xmlns="http://www.w3.org/2000/svg" viewBox="0 0 39 40"><defs><style>.cls-1{isolation:isolate;}.cls-2{fill:#fff;}</style></defs><title>Фигура 960</title><g id="Слой_2" data-name="Слой 2"><g id="Фигура_960" data-name="Фигура 960" class="cls-1"><g id="Фигура_960-2" data-name="Фигура 960"><path class="cls-2" d="M15.84,6.06a1.21,1.21,0,0,0,1.22-1.21V1.21a1.22,1.22,0,0,0-2.44,0V4.85A1.22,1.22,0,0,0,15.84,6.06Zm6.1,0a1.22,1.22,0,0,0,1.22-1.21V1.21a1.22,1.22,0,0,0-2.44,0V4.85A1.21,1.21,0,0,0,21.94,6.06Zm-12.19,0A1.22,1.22,0,0,0,11,4.85V1.21a1.22,1.22,0,0,0-2.44,0V4.85A1.22,1.22,0,0,0,9.75,6.06ZM25.59,37.58H6.09a1.21,1.21,0,1,0,0,2.42h19.5a1.21,1.21,0,1,0,0-2.42Zm9.75-24.25H31.69V10.91A3.65,3.65,0,0,0,28,7.27H3.66A3.65,3.65,0,0,0,0,10.91V31.52a3.65,3.65,0,0,0,3.66,3.63H28a3.65,3.65,0,0,0,3.66-3.63V27.88h3.65A3.65,3.65,0,0,0,39,24.24V17A3.65,3.65,0,0,0,35.34,13.33ZM29.25,31.52A1.22,1.22,0,0,1,28,32.73H3.66a1.22,1.22,0,0,1-1.22-1.21V10.91A1.21,1.21,0,0,1,3.66,9.7H6.09V27.88a.61.61,0,0,0,.61.6.6.6,0,0,0,.61-.6V9.7H28a1.22,1.22,0,0,1,1.22,1.21Zm7.31-7.28a1.21,1.21,0,0,1-1.22,1.21H31.69V15.76h3.65A1.21,1.21,0,0,1,36.56,17Z"></path></g></g></g></svg> 