<?xml version="1.0" encoding="UTF-8"?> <svg xmlns="http://www.w3.org/2000/svg" viewBox="0 0 33 41"><defs><style>.cls-1{isolation:isolate;}.cls-2{fill:#fff;}</style></defs><title>Фигура 960 (2)</title><g id="Слой_2" data-name="Слой 2"><g id="Фигура_960" data-name="Фигура 960" class="cls-1"><g id="Фигура_960-2" data-name="Фигура 960"><path class="cls-2" d="M21.71,17.45,17.3,21.26a3,3,0,0,0-.8-.12,3.21,3.21,0,1,0,3.17,3.2A3.31,3.31,0,0,0,19.36,23l3.28-4.66a.64.64,0,0,0-.93-.86ZM16.5,26.27a1.93,1.93,0,1,1,1.9-1.93A1.92,1.92,0,0,1,16.5,26.27Zm2-4.36,0,0,.1-.08Zm12.17-6,.93-.95a3.36,3.36,0,0,0,0-4.73L31,9.52a3.31,3.31,0,0,0-4.69,0l-.83.84A16.7,16.7,0,0,0,21.58,8.5V6.34A3.2,3.2,0,0,0,20.94,0H12.06a3.2,3.2,0,0,0-.64,6.34V8.5A16.68,16.68,0,0,0,16.5,41,16.66,16.66,0,0,0,30.71,15.91Zm-2.66-4.57a.77.77,0,0,1,1.1,0l.7.7a.81.81,0,0,1,.23.55.83.83,0,0,1-.23.56l-.62.63a16.27,16.27,0,0,0-1.77-1.85Zm-16-8.78h8.88a.64.64,0,0,1,.64.64.64.64,0,0,1-.64.64H12.06a.64.64,0,0,1-.64-.64A.64.64,0,0,1,12.06,2.56Zm7,3.85v1.5a16.32,16.32,0,0,0-2.54-.22A16.32,16.32,0,0,0,14,7.91V6.41Zm-2.54,32a14.1,14.1,0,1,1,14-14.1A14,14,0,0,1,16.5,38.44Zm0-26.27A12.18,12.18,0,1,0,28.56,24.34,12.13,12.13,0,0,0,16.5,12.17ZM24.12,25h3.14A10.83,10.83,0,0,1,17.13,35.2V32a.63.63,0,1,0-1.26,0V35.2A10.83,10.83,0,0,1,5.74,25H8.88a.64.64,0,0,0,0-1.28H5.74A10.83,10.83,0,0,1,15.87,13.49v3.17a.63.63,0,1,0,1.26,0V13.49A10.83,10.83,0,0,1,27.26,23.7H24.12a.64.64,0,0,0,0,1.28Z"></path></g></g></g></svg> 