<?xml version="1.0" encoding="UTF-8"?> <svg xmlns="http://www.w3.org/2000/svg" viewBox="0 0 41 41.01"><defs><style>.cls-1{isolation:isolate;}.cls-2{fill:#fff;}</style></defs><title>Фигура 959</title><g id="Слой_2" data-name="Слой 2"><g id="Фигура_959" data-name="Фигура 959" class="cls-1"><g id="Фигура_959-2" data-name="Фигура 959"><path class="cls-2" d="M40.49,14.19,23.3,1a4.59,4.59,0,0,0-5.61,0L.51,14.19a1.32,1.32,0,0,0-.51,1V36.36A4.72,4.72,0,0,0,4.79,41H36.21A4.72,4.72,0,0,0,41,36.36V15.23A1.32,1.32,0,0,0,40.49,14.19ZM19.23,3a2.1,2.1,0,0,1,2.53,0l15,11.54H4.26ZM37.5,15.89,22.77,25.11a4.13,4.13,0,0,0-4.78.15l0,0L3.43,15.89ZM2.56,36.36V16.8L16.9,26.1,2.7,37A1.86,1.86,0,0,1,2.56,36.36Zm33.65,2H4.79A2.33,2.33,0,0,1,3.48,38L18.8,26.21a2.82,2.82,0,0,1,3.4,0L37.51,38A2.35,2.35,0,0,1,36.21,38.4Zm2.23-2a1.92,1.92,0,0,1-.14.68L23.84,25.9l14.6-9.13Z"></path></g></g></g></svg> 