<?xml version="1.0" encoding="UTF-8"?> <svg xmlns="http://www.w3.org/2000/svg" viewBox="0 0 41 40"><defs><style>.cls-1{isolation:isolate;}.cls-2{fill:#fff;}</style></defs><title>Фигура 956</title><g id="Слой_2" data-name="Слой 2"><g id="Фигура_956" data-name="Фигура 956" class="cls-1"><g id="Фигура_956-2" data-name="Фигура 956"><path class="cls-2" d="M36.63,8.13H27.12V3.88a3.66,3.66,0,0,0-4-3.88H17.8a3.6,3.6,0,0,0-3.92,3.88V8.13H4.37A4.35,4.35,0,0,0,0,12.46V35.67A4.35,4.35,0,0,0,4.37,40H36.63A4.35,4.35,0,0,0,41,35.67V12.46A4.35,4.35,0,0,0,36.63,8.13ZM16.4,3.88A1.31,1.31,0,0,1,17.8,2.5h4.51c.79,0,2.29.24,2.29,1.38V8.13H16.4ZM38.48,23.13H24.6v-.59A2.56,2.56,0,0,0,22,20H19a2.56,2.56,0,0,0-2.57,2.54v.59H8.28a.62.62,0,0,0-.63.62.63.63,0,0,0,.63.63H16.4v1.2A2.55,2.55,0,0,0,19,28.12H22a2.55,2.55,0,0,0,2.57-2.54v-1.2H38.48V35.67a1.84,1.84,0,0,1-1.85,1.83H4.37a1.84,1.84,0,0,1-1.85-1.83V24.38h2a.63.63,0,0,0,.63-.63.62.62,0,0,0-.63-.62h-2V12.46a1.85,1.85,0,0,1,1.85-1.84H36.63a1.85,1.85,0,0,1,1.85,1.84Zm-15.14-.59v3A1.3,1.3,0,0,1,22,26.87H19a1.3,1.3,0,0,1-1.31-1.29v-3A1.3,1.3,0,0,1,19,21.25H22A1.3,1.3,0,0,1,23.34,22.54Z"></path></g></g></g></svg> 