<?xml version="1.0" encoding="UTF-8"?> <svg xmlns="http://www.w3.org/2000/svg" viewBox="0 0 40 49"><defs><style>.cls-1{isolation:isolate;}.cls-2{fill:#c48b27;}</style></defs><title>Фигура 1066</title><g id="Слой_2" data-name="Слой 2"><g id="Фигура_1066" data-name="Фигура 1066" class="cls-1"><g id="Фигура_1066-2" data-name="Фигура 1066"><path class="cls-2" d="M10.86,37.52H7.79a.76.76,0,0,0-.77.76.77.77,0,0,0,.77.77h3.07a.77.77,0,0,0,.77-.77A.76.76,0,0,0,10.86,37.52Zm-3.07-2.3h7.69a.77.77,0,1,0,0-1.53H7.79a.77.77,0,1,0,0,1.53Zm11.54,2.3H13.94a.77.77,0,0,0-.77.76.78.78,0,0,0,.77.77h5.39a.78.78,0,0,0,.77-.77A.77.77,0,0,0,19.33,37.52Zm-6.16-7.66a.78.78,0,0,0,.77.77H20.1a.77.77,0,0,0,0-1.54H13.94A.78.78,0,0,0,13.17,29.86Zm-5.38.77h3.07a.77.77,0,1,0,0-1.54H7.79a.77.77,0,0,0,0,1.54Zm0-3.83h6.15a.77.77,0,0,0,.77-.77.76.76,0,0,0-.77-.76H7.79A.76.76,0,0,0,7,26,.77.77,0,0,0,7.79,26.8ZM16.25,26a.77.77,0,0,0,.77.77h7.69a.77.77,0,0,0,.77-.77.76.76,0,0,0-.77-.76H17A.76.76,0,0,0,16.25,26Zm23-8.13L21.61.48A1.57,1.57,0,0,0,20.52,0H5A5,5,0,0,0,0,5.19V43.57A5.19,5.19,0,0,0,5,49H34.38A5.63,5.63,0,0,0,40,43.57V19C40,18.58,39.5,18.18,39.22,17.9ZM21.54,4.68l14.11,13.7H24.31a2.93,2.93,0,0,1-2.77-3.17ZM36.92,43.57a2.66,2.66,0,0,1-2.54,2.37H5a2.12,2.12,0,0,1-2-2.37V5.19A2,2,0,0,1,5,3.06H19.87l.13.13v12a4.5,4.5,0,0,0,4.31,4.7H36.92ZM27.79,26.8h3.08a.77.77,0,0,0,.76-.77.76.76,0,0,0-.76-.76H27.79A.76.76,0,0,0,27,26,.77.77,0,0,0,27.79,26.8Zm3.08,2.29h-7.7a.77.77,0,1,0,0,1.54h7.7a.77.77,0,0,0,0-1.54Zm0,4.6H29.33a.77.77,0,1,0,0,1.53h1.54a.77.77,0,0,0,0-1.53Zm-4.62,0H18.56a.77.77,0,1,0,0,1.53h7.69a.77.77,0,1,0,0-1.53Z"></path></g></g></g></svg> 