<?xml version="1.0" encoding="UTF-8"?> <svg xmlns="http://www.w3.org/2000/svg" viewBox="0 0 40 39.97"><defs><style>.cls-1{isolation:isolate;}.cls-2{fill:#fff;}</style></defs><title>Фигура 962</title><g id="Слой_2" data-name="Слой 2"><g id="Фигура_962" data-name="Фигура 962" class="cls-1"><g id="Фигура_962-2" data-name="Фигура 962"><path class="cls-2" d="M31.25,22.29A1.26,1.26,0,0,0,30,23.56v2.52a1.25,1.25,0,1,0,2.5,0V23.56A1.26,1.26,0,0,0,31.25,22.29Zm6.15-9.9L32.08,0,4.36,12.15l0,0H3.75A3.77,3.77,0,0,0,0,16V36.19A3.77,3.77,0,0,0,3.75,40h32.5A3.77,3.77,0,0,0,40,36.19V16A3.79,3.79,0,0,0,37.4,12.39ZM32.3,6.85l2.29,5.34H20.13ZM30.78,3.32l1,2.38L17,12.19H10.56ZM37.5,33.66H6.25a.63.63,0,0,0,0,1.26H37.5v1.27a1.26,1.26,0,0,1-1.25,1.26H3.75A1.26,1.26,0,0,1,2.5,36.19V16a1.25,1.25,0,0,1,1.25-1.26h32.5A1.25,1.25,0,0,1,37.5,16Z"></path></g></g></g></svg> 